<?xml version="1.0" encoding="utf-8"?>
<!-- Generator: Adobe Illustrator 24.1.2, SVG Export Plug-In . SVG Version: 6.00 Build 0)  -->
<svg version="1.1" id="图层_1" xmlns="http://www.w3.org/2000/svg" xmlns:xlink="http://www.w3.org/1999/xlink" x="0px" y="0px"
	 viewBox="0 0 69 127" style="enable-background:new 0 0 69 127;" xml:space="preserve">
<style type="text/css">
	.st0{fill:#2C3E50;}
</style>
<path class="st0" d="M28.7,95.4h11.5c0.8,0,1.5-0.3,2-0.8c0.5-0.5,0.8-1.3,0.8-2s-0.3-1.5-0.8-2c-0.5-0.5-1.3-0.8-2-0.8H28.7
	c-0.8,0-1.5,0.3-2,0.8c-0.5,0.5-0.8,1.3-0.8,2s0.3,1.5,0.8,2C27.3,95.1,28,95.4,28.7,95.4L28.7,95.4z M54.6,66.6H14.4
	c-2,0-4,0.7-5.5,2.1c-1.5,1.3-2.6,3.1-2.9,5.1c-0.3,2,0,4,1,5.8c1,1.7,2.6,3.1,4.5,3.8v26.4c0,2.3,0.9,4.5,2.5,6.1
	c1.6,1.6,3.8,2.5,6.1,2.5h28.8c2.3,0,4.5-0.9,6.1-2.5c1.6-1.6,2.5-3.8,2.5-6.1V83.4c1.9-0.7,3.5-2,4.5-3.8c1-1.7,1.4-3.8,1-5.8
	c-0.3-2-1.4-3.8-2.9-5.1C58.6,67.4,56.6,66.6,54.6,66.6z M51.7,109.7c0,0.8-0.3,1.5-0.8,2c-0.5,0.5-1.3,0.8-2,0.8H20.1
	c-0.8,0-1.5-0.3-2-0.8c-0.5-0.5-0.8-1.3-0.8-2V83.9h34.5V109.7z M54.6,78.1H14.4c-0.8,0-1.5-0.3-2-0.8c-0.5-0.5-0.8-1.3-0.8-2
	s0.3-1.5,0.8-2c0.5-0.5,1.3-0.8,2-0.8h40.3c0.8,0,1.5,0.3,2,0.8c0.5,0.5,0.8,1.3,0.8,2s-0.3,1.5-0.8,2
	C56.1,77.8,55.4,78.1,54.6,78.1z"/>
<path class="st0" d="M41.1,49.7l-3.7,3.7V37.4c0-0.8-0.3-1.5-0.8-2c-0.5-0.5-1.3-0.8-2-0.8c-0.8,0-1.5,0.3-2,0.8
	c-0.5,0.5-0.8,1.3-0.8,2v16.1l-3.7-3.7c-0.3-0.3-0.6-0.5-0.9-0.6c-0.4-0.1-0.7-0.2-1.1-0.2c-0.4,0-0.8,0.1-1.1,0.2
	c-0.4,0.1-0.7,0.4-0.9,0.6c-0.3,0.3-0.5,0.6-0.6,0.9C23.1,51,23,51.4,23,51.7s0.1,0.8,0.2,1.1s0.4,0.7,0.6,0.9l8.6,8.6
	c0.3,0.3,0.6,0.5,0.9,0.6c0.3,0.2,0.7,0.2,1.1,0.2c0.4,0,0.7-0.1,1.1-0.2c0.4-0.1,0.7-0.3,0.9-0.6l8.6-8.6c0.5-0.5,0.8-1.3,0.8-2
	c0-0.8-0.3-1.5-0.8-2c-0.5-0.5-1.3-0.8-2-0.8C42.4,48.9,41.6,49.2,41.1,49.7L41.1,49.7z M53,17.9c-1.8-4-4.8-7.4-8.6-9.5
	C40.5,6.2,36,5.4,31.7,6c-4.4,0.6-8.4,2.6-11.5,5.8c-3.1,3.1-5.1,7.2-5.6,11.6c-2.7,0.7-5.1,2.3-6.8,4.6s-2.3,5.1-2,7.9
	c0.3,2.8,1.7,5.4,3.8,7.2c2.1,1.9,4.8,2.9,7.7,2.9c0.8,0,1.5-0.3,2-0.8c0.5-0.5,0.8-1.3,0.8-2s-0.3-1.5-0.8-2
	c-0.5-0.5-1.3-0.8-2-0.8c-1.5,0-3-0.6-4.1-1.7c-1.1-1.1-1.7-2.5-1.7-4.1c0-1.5,0.6-3,1.7-4.1c1.1-1.1,2.5-1.7,4.1-1.7
	c0.8,0,1.5-0.3,2-0.8c0.5-0.5,0.8-1.3,0.8-2c0-3.4,1.2-6.7,3.4-9.3c2.2-2.6,5.3-4.3,8.6-4.9c3.4-0.6,6.8,0.1,9.7,1.8
	c2.9,1.7,5.1,4.5,6.2,7.7c0.2,0.5,0.5,0.9,0.9,1.3c0.4,0.3,0.9,0.6,1.4,0.7c1.9,0.4,3.7,1.4,4.9,2.8c1.3,1.5,2,3.3,2.1,5.3
	c0.1,1.9-0.5,3.9-1.7,5.4c-1.1,1.6-2.8,2.7-4.7,3.2c-0.4,0.1-0.7,0.3-1,0.5c-0.3,0.2-0.6,0.5-0.7,0.8S49,42,48.9,42.3
	c-0.1,0.4,0,0.8,0.1,1.1c0.1,0.4,0.3,0.7,0.5,1c0.2,0.3,0.5,0.6,0.8,0.7c0.3,0.2,0.7,0.3,1.1,0.4c0.4,0.1,0.8,0,1.1-0.1
	c3-0.8,5.7-2.6,7.6-5c1.9-2.5,3-5.5,3.1-8.6c0.1-3.1-0.9-6.2-2.8-8.7C58.6,20.6,56,18.8,53,17.9L53,17.9z"/>
</svg>
